<?xml version="1.0" encoding="UTF-8" standalone="no"?>
<svg
   xmlns:osb="http://www.openswatchbook.org/uri/2009/osb"
   xmlns:dc="http://purl.org/dc/elements/1.1/"
   xmlns:cc="http://creativecommons.org/ns#"
   xmlns:rdf="http://www.w3.org/1999/02/22-rdf-syntax-ns#"
   xmlns:svg="http://www.w3.org/2000/svg"
   xmlns="http://www.w3.org/2000/svg"
   xmlns:xlink="http://www.w3.org/1999/xlink"
   xmlns:sodipodi="http://sodipodi.sourceforge.net/DTD/sodipodi-0.dtd"
   xmlns:inkscape="http://www.inkscape.org/namespaces/inkscape"
   width="64"
   version="1.1"
   height="64"
   id="svg17"
   sodipodi:docname="folder-temp.svg"
   inkscape:version="1.0 (4035a4fb49, 2020-05-01)">
  <sodipodi:namedview
     inkscape:document-rotation="0"
     pagecolor="#ffffff"
     bordercolor="#666666"
     borderopacity="1"
     objecttolerance="10"
     gridtolerance="10"
     guidetolerance="10"
     inkscape:pageopacity="0"
     inkscape:pageshadow="2"
     inkscape:window-width="1920"
     inkscape:window-height="1021"
     id="namedview19"
     showgrid="false"
     inkscape:zoom="20.48"
     inkscape:cx="31.685087"
     inkscape:cy="30.446301"
     inkscape:window-x="0"
     inkscape:window-y="30"
     inkscape:window-maximized="1"
     inkscape:current-layer="layer1-3" />
  <defs
     id="defs5455">
    <linearGradient
       id="linearGradient883"
       osb:paint="solid">
      <stop
         style="stop-color:#90a512;stop-opacity:1;"
         offset="0"
         id="stop881" />
    </linearGradient>
    <linearGradient
       osb:paint="solid"
       id="linearGradient2483">
      <stop
         id="stop2481"
         offset="0"
         style="stop-color:#000000;stop-opacity:1;" />
    </linearGradient>
    <linearGradient
       osb:paint="solid"
       id="linearGradient894">
      <stop
         id="stop892"
         offset="0"
         style="stop-color:#6e6e6e;stop-opacity:1;" />
    </linearGradient>
    <linearGradient
       osb:paint="solid"
       id="linearGradient888">
      <stop
         id="stop886"
         offset="0"
         style="stop-color:#6e6e6e;stop-opacity:1;" />
    </linearGradient>
    <linearGradient
       inkscape:collect="always"
       id="linearGradient4178-9"
       xlink:href="#linearGradient4172-2"
       y1="541.79797"
       y2="499.78421"
       gradientUnits="userSpaceOnUse"
       x2="0"
       gradientTransform="matrix(1,0,0,0.99967455,0,0.176455)" />
    <linearGradient
       inkscape:collect="always"
       id="linearGradient4172-2">
      <stop
         style="stop-color:#a7afb4"
         id="stop4174-6-6" />
      <stop
         offset="1"
         style="stop-color:#bdc3c7"
         id="stop4176-2" />
    </linearGradient>
    <linearGradient
       gradientUnits="userSpaceOnUse"
       y2="37"
       x2="42"
       y1="37"
       x1="22"
       id="linearGradient896"
       xlink:href="#linearGradient894"
       inkscape:collect="always" />
  </defs>
  <metadata
     id="metadata5458">
    <rdf:RDF>
      <cc:Work
         rdf:about="">
        <dc:format>image/svg+xml</dc:format>
        <dc:type
           rdf:resource="http://purl.org/dc/dcmitype/StillImage" />
        <dc:title></dc:title>
      </cc:Work>
    </rdf:RDF>
  </metadata>
  <g
     inkscape:groupmode="layer"
     id="layer2"
     inkscape:label="Capa 2"
     style="display:inline">
    <g
       transform="translate(-384.57143,-483.79824)"
       inkscape:label="Capa 1"
       id="layer1-5">
      <path
         inkscape:connector-curvature="0"
         style="fill:#6e6e6e"
         id="rect4180-4"
         d="m 388.57143,489.79813 v 5 22 c 0,0.55372 0.446,1 1,1 h 54 c 0.55399,0 1,-0.44628 1,-1 V 494.8079 c 0,-0.003 -0.002,-0.006 -0.002,-0.01 h 0.002 v -1 h -28 l -4,-4 h -24 z" />
      <path
         inkscape:connector-curvature="0"
         style="fill:url(#linearGradient4178-9)"
         id="rect4113-8"
         d="m 410.57143,499.79813 -4,4 h -19 v 1 h 0.002 c -5e-5,0.004 -0.002,0.008 -0.002,0.0117 v 35.98828 1 h 1 56 1 v -1 -35.98828 -0.0117 -5 z" />
      <path
         inkscape:connector-curvature="0"
         style="fill:#ffffff;fill-opacity:0.235294;fill-rule:evenodd"
         id="path4224-5"
         d="m 387.57144,503.79813 v 1 h 19.99999 l 3,-5 -4,4 z" />
      <path
         inkscape:connector-curvature="0"
         style="fill-opacity:0.235294;fill-rule:evenodd"
         id="path4228-5"
         d="m 388.57143,502.79813 v 1 h 18 l 4,-4 -6,3 z" />
      <path
         inkscape:connector-curvature="0"
         style="fill-opacity:0.235294"
         id="path4151-2-4"
         d="m 387.57143,540.79811 v 1 h 1 56 1 v -1 h -1 -56 z" />
      <path
         inkscape:connector-curvature="0"
         style="fill:#ffffff;fill-opacity:0.235294;fill-rule:evenodd"
         id="path4196-3"
         d="m 412.57143,489.79801 3,5 h 2 27 v -1 h -27 -1 z" />
    </g>
    <g
       transform="translate(-384.57143,-483.79823)"
       id="layer1"
       inkscape:label="Capa 1">
      <rect
         id="rect4035"
         style="fill:#4d4d4d"
         height="14.668059"
         y="492.91455"
         x="352.95316"
         width="0" />
      <rect
         id="rect4035-8"
         style="fill:#4d4d4d"
         height="14.668059"
         y="515.48517"
         x="359.91373"
         width="0" />
      <rect
         id="rect4035-0"
         style="fill:#4d4d4d"
         height="14.668059"
         y="514.42444"
         x="361.72702"
         width="0" />
      <rect
         id="rect4035-06"
         style="fill:#4d4d4d"
         height="14.668059"
         y="489.1333"
         x="335.79691"
         width="0" />
      <rect
         id="rect4035-8-7"
         style="fill:#4d4d4d"
         height="14.668059"
         y="511.70392"
         x="342.75748"
         width="0" />
      <rect
         id="rect4035-0-42"
         style="fill:#4d4d4d"
         height="14.668059"
         y="510.64319"
         x="344.57077"
         width="0" />
      <rect
         id="rect4035-3"
         style="fill:#4d4d4d"
         height="14.668059"
         y="489.1333"
         x="335.79691"
         width="0" />
      <rect
         id="rect4035-8-9"
         style="fill:#4d4d4d"
         height="14.668059"
         y="511.70392"
         x="342.75748"
         width="0" />
      <rect
         id="rect4035-0-4"
         style="fill:#4d4d4d"
         height="14.668059"
         y="510.64319"
         x="344.57077"
         width="0" />
      <rect
         id="rect4035-2"
         style="fill:#4d4d4d"
         height="14.668059"
         y="489.1333"
         x="335.79691"
         width="0" />
      <rect
         id="rect4035-8-99"
         style="fill:#4d4d4d"
         height="14.668059"
         y="511.70392"
         x="342.75748"
         width="0" />
      <rect
         id="rect4035-0-43"
         style="fill:#4d4d4d"
         height="14.668059"
         y="510.64319"
         x="344.57077"
         width="0" />
      <rect
         id="rect4035-3-9"
         style="fill:#4d4d4d"
         height="14.668059"
         y="489.1333"
         x="335.79691"
         width="0" />
      <rect
         id="rect4035-8-9-9"
         style="fill:#4d4d4d"
         height="14.668059"
         y="511.70392"
         x="342.75748"
         width="0" />
      <rect
         id="rect4035-0-4-4"
         style="fill:#4d4d4d"
         height="14.668059"
         y="510.64319"
         x="344.57077"
         width="0" />
      <rect
         id="rect4035-5"
         style="fill:#4d4d4d"
         height="10.999983"
         y="510.42273"
         x="406.06702"
         width="0" />
      <rect
         id="rect4035-7"
         style="fill:#4d4d4d"
         height="10.999983"
         y="512.94183"
         x="401.51501"
         width="0" />
      <rect
         id="rect4035-9"
         style="fill:#4d4d4d"
         height="10.999983"
         y="500.52325"
         x="397.00723"
         width="0" />
      <rect
         id="rect4035-96"
         style="fill:#4d4d4d"
         height="10.999983"
         y="512.76068"
         x="397.85126"
         width="0" />
      <rect
         id="rect4035-7-0"
         style="fill:#4d4d4d"
         height="10.999983"
         y="515.27979"
         x="393.29926"
         width="0" />
      <rect
         id="rect4035-9-6"
         style="fill:#4d4d4d"
         height="10.999983"
         y="502.86121"
         x="388.79147"
         width="0" />
      <rect
         id="rect4035-1"
         style="fill:#4d4d4d"
         height="10.999983"
         y="510.42273"
         x="406.06702"
         width="0" />
      <rect
         id="rect4035-7-2"
         style="fill:#4d4d4d"
         height="10.999983"
         y="512.94183"
         x="401.51501"
         width="0" />
      <rect
         id="rect4035-9-0"
         style="fill:#4d4d4d"
         height="10.999983"
         y="500.52325"
         x="397.00723"
         width="0" />
      <rect
         id="rect4035-96-9"
         style="fill:#4d4d4d"
         height="10.999983"
         y="512.76068"
         x="397.85126"
         width="0" />
      <rect
         id="rect4035-7-0-9"
         style="fill:#4d4d4d"
         height="10.999983"
         y="515.27979"
         x="393.29926"
         width="0" />
      <rect
         id="rect4035-9-6-9"
         style="fill:#4d4d4d"
         height="10.999983"
         y="502.86121"
         x="388.79147"
         width="0" />
      <a
         id="a904">
        <g
           inkscape:label="Capa 1"
           id="layer1-3"
           transform="translate(0.53446293,0.26589036)">
          <path
             style="color:#000000;fill:url(#linearGradient896);fill-opacity:1;fill-rule:evenodd;stroke-width:0.1"
             id="path3995"
             d="m 32,27 c -5.522847,0 -10,4.477153 -10,10 0,5.522847 4.477153,10 10,10 5.522847,0 10,-4.477153 10,-10 0,-5.522847 -4.477153,-10 -10,-10 z m 0,1 c 4.970563,0 9,4.029437 9,9 0,4.970563 -4.029437,9 -9,9 -4.970563,0 -9,-4.029437 -9,-9 0,-4.970563 4.029437,-9 9,-9 z m -1,1 v 8 1 h 9 v -1 h -8 v -8 z"
             transform="translate(384.57143,483.798)" />
        </g>
      </a>
    </g>
  </g>
</svg>
