<?xml version="1.0" encoding="UTF-8" standalone="no"?>
<svg
   xmlns:dc="http://purl.org/dc/elements/1.1/"
   xmlns:cc="http://creativecommons.org/ns#"
   xmlns:rdf="http://www.w3.org/1999/02/22-rdf-syntax-ns#"
   xmlns:svg="http://www.w3.org/2000/svg"
   xmlns="http://www.w3.org/2000/svg"
   xmlns:xlink="http://www.w3.org/1999/xlink"
   xmlns:sodipodi="http://sodipodi.sourceforge.net/DTD/sodipodi-0.dtd"
   xmlns:inkscape="http://www.inkscape.org/namespaces/inkscape"
   inkscape:version="1.0 (4035a4fb49, 2020-05-01)"
   sodipodi:docname="folder-root.svg"
   id="svg17"
   height="64"
   version="1.1"
   width="64">
  <sodipodi:namedview
     inkscape:snap-to-guides="true"
     inkscape:current-layer="layer2"
     inkscape:window-maximized="1"
     inkscape:window-y="30"
     inkscape:window-x="0"
     inkscape:cy="24.929079"
     inkscape:cx="2.6309333"
     inkscape:zoom="8"
     showgrid="false"
     id="namedview19"
     inkscape:window-height="1021"
     inkscape:window-width="1920"
     inkscape:pageshadow="2"
     inkscape:pageopacity="0"
     guidetolerance="10"
     gridtolerance="10"
     objecttolerance="10"
     borderopacity="1"
     bordercolor="#666666"
     pagecolor="#ffffff"
     inkscape:document-rotation="0" />
  <defs
     id="defs5455">
    <linearGradient
       gradientTransform="matrix(1,0,0,0.99967455,0,0.176455)"
       x2="0"
       gradientUnits="userSpaceOnUse"
       y2="499.78421"
       y1="541.79797"
       xlink:href="#linearGradient4172-2"
       id="linearGradient4178-9"
       inkscape:collect="always" />
    <linearGradient
       id="linearGradient4172-2"
       inkscape:collect="always">
      <stop
         id="stop4174-6-6"
         style="stop-color:#a7afb4" />
      <stop
         id="stop4176-2"
         style="stop-color:#bdc3c7"
         offset="1" />
    </linearGradient>
    <linearGradient
       gradientTransform="matrix(1,0,0,0.99967455,0,0.17645)"
       x2="0"
       gradientUnits="userSpaceOnUse"
       y2="499.78421"
       y1="541.79797"
       xlink:href="#linearGradient4172-5"
       id="linearGradient4178" />
    <linearGradient
       id="linearGradient4172-5">
      <stop
         id="stop4174-6"
         style="stop-color:#3daee9" />
      <stop
         id="stop4176-6"
         style="stop-color:#6cc1ef"
         offset="1" />
    </linearGradient>
    <linearGradient
       gradientTransform="matrix(1,0,0,0.99967455,0,0.176455)"
       x2="0"
       gradientUnits="userSpaceOnUse"
       y2="499.78421"
       y1="541.79797"
       xlink:href="#linearGradient4172-2"
       id="linearGradient4178-9-4"
       inkscape:collect="always" />
  </defs>
  <metadata
     id="metadata5458">
    <rdf:RDF>
      <cc:Work
         rdf:about="">
        <dc:format>image/svg+xml</dc:format>
        <dc:type
           rdf:resource="http://purl.org/dc/dcmitype/StillImage" />
        <dc:title />
      </cc:Work>
    </rdf:RDF>
  </metadata>
  <g
     sodipodi:insensitive="true"
     style="display:inline"
     inkscape:label="Capa 2"
     id="layer2"
     inkscape:groupmode="layer">
    <g
       transform="translate(1)"
       style="display:inline"
       inkscape:label="Capa 2"
       id="layer2-8">
      <g
         id="layer1-5-6"
         inkscape:label="Capa 1"
         transform="translate(-384.57143,-483.79824)">
        <path
           d="m 388.57143,489.79813 v 5 22 c 0,0.55372 0.446,1 1,1 h 54 c 0.55399,0 1,-0.44628 1,-1 V 494.8079 c 0,-0.003 -0.002,-0.006 -0.002,-0.01 h 0.002 v -1 h -28 l -4,-4 h -24 z"
           id="rect4180-4-0"
           style="fill:#6e6e6e"
           inkscape:connector-curvature="0" />
        <path
           d="m 410.57143,499.79813 -4,4 h -19 v 1 h 0.002 c -5e-5,0.004 -0.002,0.008 -0.002,0.0117 v 35.98828 1 h 1 56 1 v -1 -35.98828 -0.0117 -5 z"
           id="rect4113-8-4"
           style="fill:url(#linearGradient4178-9-4)"
           inkscape:connector-curvature="0" />
        <path
           d="m 387.57144,503.79813 v 1 h 19.99999 l 3,-5 -4,4 z"
           id="path4224-5-8"
           style="fill:#ffffff;fill-opacity:0.235294;fill-rule:evenodd"
           inkscape:connector-curvature="0" />
        <path
           d="m 388.57143,502.79813 v 1 h 18 l 4,-4 -6,3 z"
           id="path4228-5-8"
           style="fill-opacity:0.235294;fill-rule:evenodd"
           inkscape:connector-curvature="0" />
        <path
           d="m 387.57143,540.79811 v 1 h 1 56 1 v -1 h -1 -56 z"
           id="path4151-2-4-8"
           style="fill-opacity:0.235294"
           inkscape:connector-curvature="0" />
        <path
           d="m 412.57143,489.79801 3,5 h 2 27 v -1 h -27 -1 z"
           id="path4196-3-9"
           style="fill:#ffffff;fill-opacity:0.235294;fill-rule:evenodd"
           inkscape:connector-curvature="0" />
      </g>
    </g>
    <g
       id="layer1-5"
       inkscape:label="Capa 1"
       transform="translate(-384.57143,-483.79824)">
      <path
         d="m 388.57143,489.79813 v 5 22 c 0,0.55372 0.446,1 1,1 h 54 c 0.55399,0 1,-0.44628 1,-1 V 494.8079 c 0,-0.003 -0.002,-0.006 -0.002,-0.01 h 0.002 v -1 h -28 l -4,-4 h -24 z"
         id="rect4180-4"
         style="fill:#6e6e6e"
         inkscape:connector-curvature="0" />
      <path
         d="m 410.57143,499.79813 -4,4 h -19 v 1 h 0.002 c -5e-5,0.004 -0.002,0.008 -0.002,0.0117 v 35.98828 1 h 1 56 1 v -1 -35.98828 -0.0117 -5 z"
         id="rect4113-8"
         style="fill:url(#linearGradient4178-9)"
         inkscape:connector-curvature="0" />
      <path
         d="m 387.57144,503.79813 v 1 h 19.99999 l 3,-5 -4,4 z"
         id="path4224-5"
         style="fill:#ffffff;fill-opacity:0.235294;fill-rule:evenodd"
         inkscape:connector-curvature="0" />
      <path
         d="m 388.57143,502.79813 v 1 h 18 l 4,-4 -6,3 z"
         id="path4228-5"
         style="fill-opacity:0.235294;fill-rule:evenodd"
         inkscape:connector-curvature="0" />
      <path
         d="m 387.57143,540.79811 v 1 h 1 56 1 v -1 h -1 -56 z"
         id="path4151-2-4"
         style="fill-opacity:0.235294"
         inkscape:connector-curvature="0" />
      <path
         d="m 412.57143,489.79801 3,5 h 2 27 v -1 h -27 -1 z"
         id="path4196-3"
         style="fill:#ffffff;fill-opacity:0.235294;fill-rule:evenodd"
         inkscape:connector-curvature="0" />
    </g>
  </g>
  <g
     style="display:inline"
     inkscape:label="Capa 3"
     id="layer4"
     inkscape:groupmode="layer">
    <rect
       transform="matrix(1,0,-0.44795879,0.8940542,0,0)"
       ry="0"
       y="30.19939"
       x="46.666031"
       height="22.374565"
       width="1.7868614"
       id="rect1016"
       style="fill:#6e6e6e;stroke-width:1.05068;fill-opacity:1" />
    <rect
       y="45.999889"
       x="33"
       height="1"
       width="10"
       id="rect1042"
       style="fill:#6e6e6e;fill-opacity:1" />
  </g>
</svg>
