<?xml version="1.0" encoding="UTF-8" standalone="no"?>
<svg
   xmlns:dc="http://purl.org/dc/elements/1.1/"
   xmlns:cc="http://creativecommons.org/ns#"
   xmlns:rdf="http://www.w3.org/1999/02/22-rdf-syntax-ns#"
   xmlns:svg="http://www.w3.org/2000/svg"
   xmlns="http://www.w3.org/2000/svg"
   xmlns:xlink="http://www.w3.org/1999/xlink"
   xmlns:sodipodi="http://sodipodi.sourceforge.net/DTD/sodipodi-0.dtd"
   xmlns:inkscape="http://www.inkscape.org/namespaces/inkscape"
   inkscape:version="1.0 (4035a4fb49, 2020-05-01)"
   sodipodi:docname="folder-locked.svg"
   id="svg17"
   height="64"
   version="1.1"
   width="64">
  <sodipodi:namedview
     inkscape:current-layer="g58"
     inkscape:window-maximized="1"
     inkscape:window-y="30"
     inkscape:window-x="0"
     inkscape:cy="41.267469"
     inkscape:cx="15.709033"
     inkscape:zoom="6.8046875"
     showgrid="false"
     id="namedview19"
     inkscape:window-height="1021"
     inkscape:window-width="1920"
     inkscape:pageshadow="2"
     inkscape:pageopacity="0"
     guidetolerance="10"
     gridtolerance="10"
     objecttolerance="10"
     borderopacity="1"
     bordercolor="#666666"
     pagecolor="#ffffff" />
  <defs
     id="defs5455">
    <linearGradient
       id="linearGradient4172-5"
       inkscape:collect="always">
      <stop
         id="stop4174-6"
         style="stop-color:#3daee9" />
      <stop
         id="stop4176-6"
         style="stop-color:#6cc1ef"
         offset="1" />
    </linearGradient>
    <linearGradient
       gradientTransform="matrix(1,0,0,0.99967455,0,0.17645)"
       x2="0"
       gradientUnits="userSpaceOnUse"
       y2="499.78421"
       y1="541.79797"
       xlink:href="#linearGradient4172-5"
       id="linearGradient4178-5" />
    <linearGradient
       inkscape:collect="always"
       id="linearGradient4178-9"
       xlink:href="#linearGradient4172-2"
       y1="541.79797"
       y2="499.78421"
       gradientUnits="userSpaceOnUse"
       x2="0"
       gradientTransform="matrix(1,0,0,0.99967455,0,0.176455)" />
    <linearGradient
       inkscape:collect="always"
       id="linearGradient4172-2">
      <stop
         style="stop-color:#a7afb4"
         id="stop4174-6-6" />
      <stop
         offset="1"
         style="stop-color:#bdc3c7"
         id="stop4176-2" />
    </linearGradient>
  </defs>
  <metadata
     id="metadata5458">
    <rdf:RDF>
      <cc:Work
         rdf:about="">
        <dc:format>image/svg+xml</dc:format>
        <dc:type
           rdf:resource="http://purl.org/dc/dcmitype/StillImage" />
      </cc:Work>
    </rdf:RDF>
  </metadata>
  <g
     inkscape:label="Capa 2"
     id="layer2"
     inkscape:groupmode="layer">
    <g
       id="g58"
       transform="translate(0,2.35e-4)">
      <g
         id="layer2-2"
         inkscape:label="Capa 2"
         style="display:inline">
        <g
           transform="translate(-384.57143,-483.79824)"
           inkscape:label="Capa 1"
           id="layer1-5">
          <path
             inkscape:connector-curvature="0"
             style="fill:#6e6e6e"
             id="rect4180-4"
             d="m 388.57143,489.79813 v 5 22 c 0,0.55372 0.446,1 1,1 h 54 c 0.55399,0 1,-0.44628 1,-1 V 494.8079 c 0,-0.003 -0.002,-0.006 -0.002,-0.01 h 0.002 v -1 h -28 l -4,-4 h -24 z" />
          <path
             inkscape:connector-curvature="0"
             style="fill:url(#linearGradient4178-9)"
             id="rect4113-8"
             d="m 410.57143,499.79813 -4,4 h -19 v 1 h 0.002 c -5e-5,0.004 -0.002,0.008 -0.002,0.0117 v 35.98828 1 h 1 56 1 v -1 -35.98828 -0.0117 -5 z" />
          <path
             inkscape:connector-curvature="0"
             style="fill:#ffffff;fill-opacity:0.235294;fill-rule:evenodd"
             id="path4224-5"
             d="m 387.57144,503.79813 v 1 h 19.99999 l 3,-5 -4,4 z" />
          <path
             inkscape:connector-curvature="0"
             style="fill-opacity:0.235294;fill-rule:evenodd"
             id="path4228-5"
             d="m 388.57143,502.79813 v 1 h 18 l 4,-4 -6,3 z" />
          <path
             inkscape:connector-curvature="0"
             style="fill-opacity:0.235294"
             id="path4151-2-4"
             d="m 387.57143,540.79811 v 1 h 1 56 1 v -1 h -1 -56 z" />
          <path
             inkscape:connector-curvature="0"
             style="fill:#ffffff;fill-opacity:0.235294;fill-rule:evenodd"
             id="path4196-3"
             d="m 412.57143,489.79801 3,5 h 2 27 v -1 h -27 -1 z" />
        </g>
      </g>
    </g>
  </g>
  <g
     style="display:inline"
     transform="translate(-384.57143,-483.798)"
     id="layer1"
     inkscape:groupmode="layer"
     inkscape:label="Capa 1">
    <path
       d="m 416.57143,510.798 c -2.77,0 -5,2.23 -5,5 v 5 h -3 v 1 8.99997 l 1.75,3e-5 h 12.50001 l 1.74999,-3e-5 V 520.798 h -1.74999 -1.25001 v -5 c 0,-2.77 -2.23,-5 -5,-5 z m 0,1 c 2.0775,0 4,1.57625 4,4 v 5 h -8 v -5 c 0,-2.42375 1.92251,-4 4,-4 z m -7,10 h 14 v 8 h -14 z"
       id="rect4136"
       style="fill:#6e6e6e;fill-opacity:1"
       inkscape:connector-curvature="0" />
  </g>
</svg>
