<?xml version="1.0" encoding="UTF-8" standalone="no"?>
<svg
   xmlns:dc="http://purl.org/dc/elements/1.1/"
   xmlns:cc="http://creativecommons.org/ns#"
   xmlns:rdf="http://www.w3.org/1999/02/22-rdf-syntax-ns#"
   xmlns:svg="http://www.w3.org/2000/svg"
   xmlns="http://www.w3.org/2000/svg"
   xmlns:xlink="http://www.w3.org/1999/xlink"
   xmlns:sodipodi="http://sodipodi.sourceforge.net/DTD/sodipodi-0.dtd"
   xmlns:inkscape="http://www.inkscape.org/namespaces/inkscape"
   inkscape:version="1.0 (4035a4fb49, 2020-05-01)"
   sodipodi:docname="folder-print.svg"
   id="svg17"
   height="64"
   version="1.1"
   width="64">
  <sodipodi:namedview
     inkscape:current-layer="layer1"
     inkscape:window-maximized="1"
     inkscape:window-y="30"
     inkscape:window-x="0"
     inkscape:cy="25.236599"
     inkscape:cx="29.396264"
     inkscape:zoom="8"
     showgrid="false"
     id="namedview19"
     inkscape:window-height="1021"
     inkscape:window-width="1920"
     inkscape:pageshadow="2"
     inkscape:pageopacity="0"
     guidetolerance="10"
     gridtolerance="10"
     objecttolerance="10"
     borderopacity="1"
     bordercolor="#666666"
     pagecolor="#ffffff" />
  <defs
     id="defs5455">
    <linearGradient
       gradientTransform="matrix(1,0,0,0.99967455,0,0.176455)"
       x2="0"
       gradientUnits="userSpaceOnUse"
       y2="499.78421"
       y1="541.79797"
       xlink:href="#linearGradient4172-2"
       id="linearGradient4178-9"
       inkscape:collect="always" />
    <linearGradient
       id="linearGradient4172-2"
       inkscape:collect="always">
      <stop
         id="stop4174-6-6"
         style="stop-color:#a7afb4" />
      <stop
         id="stop4176-2"
         style="stop-color:#bdc3c7"
         offset="1" />
    </linearGradient>
  </defs>
  <metadata
     id="metadata5458">
    <rdf:RDF>
      <cc:Work
         rdf:about="">
        <dc:format>image/svg+xml</dc:format>
        <dc:type
           rdf:resource="http://purl.org/dc/dcmitype/StillImage" />
        <dc:title></dc:title>
      </cc:Work>
    </rdf:RDF>
  </metadata>
  <g
     style="display:inline"
     inkscape:label="Capa 2"
     id="layer2"
     inkscape:groupmode="layer">
    <g
       id="layer1-5"
       inkscape:label="Capa 1"
       transform="translate(-384.57143,-483.79824)">
      <path
         d="m 388.57143,489.79813 v 5 22 c 0,0.55372 0.446,1 1,1 h 54 c 0.55399,0 1,-0.44628 1,-1 V 494.8079 c 0,-0.003 -0.002,-0.006 -0.002,-0.01 h 0.002 v -1 h -28 l -4,-4 h -24 z"
         id="rect4180-4"
         style="fill:#6e6e6e"
         inkscape:connector-curvature="0" />
      <path
         d="m 410.57143,499.79813 -4,4 h -19 v 1 h 0.002 c -5e-5,0.004 -0.002,0.008 -0.002,0.0117 v 35.98828 1 h 1 56 1 v -1 -35.98828 -0.0117 -5 z"
         id="rect4113-8"
         style="fill:url(#linearGradient4178-9)"
         inkscape:connector-curvature="0" />
      <path
         d="m 387.57144,503.79813 v 1 h 19.99999 l 3,-5 -4,4 z"
         id="path4224-5"
         style="fill:#ffffff;fill-opacity:0.235294;fill-rule:evenodd"
         inkscape:connector-curvature="0" />
      <path
         d="m 388.57143,502.79813 v 1 h 18 l 4,-4 -6,3 z"
         id="path4228-5"
         style="fill-opacity:0.235294;fill-rule:evenodd"
         inkscape:connector-curvature="0" />
      <path
         d="m 387.57143,540.79811 v 1 h 1 56 1 v -1 h -1 -56 z"
         id="path4151-2-4"
         style="fill-opacity:0.235294"
         inkscape:connector-curvature="0" />
      <path
         d="m 412.57143,489.79801 3,5 h 2 27 v -1 h -27 -1 z"
         id="path4196-3"
         style="fill:#ffffff;fill-opacity:0.235294;fill-rule:evenodd"
         inkscape:connector-curvature="0" />
    </g>
    <g
       inkscape:label="Capa 1"
       id="layer1"
       transform="translate(-384.57143,-483.79823)">
      <rect
         width="0"
         x="352.95316"
         y="492.91455"
         height="14.668059"
         style="fill:#4d4d4d"
         id="rect4035" />
      <rect
         width="0"
         x="359.91373"
         y="515.48517"
         height="14.668059"
         style="fill:#4d4d4d"
         id="rect4035-8" />
      <rect
         width="0"
         x="361.72702"
         y="514.42444"
         height="14.668059"
         style="fill:#4d4d4d"
         id="rect4035-0" />
      <rect
         width="0"
         x="335.79691"
         y="489.1333"
         height="14.668059"
         style="fill:#4d4d4d"
         id="rect4035-06" />
      <rect
         width="0"
         x="342.75748"
         y="511.70392"
         height="14.668059"
         style="fill:#4d4d4d"
         id="rect4035-8-7" />
      <rect
         width="0"
         x="344.57077"
         y="510.64319"
         height="14.668059"
         style="fill:#4d4d4d"
         id="rect4035-0-42" />
      <rect
         width="0"
         x="335.79691"
         y="489.1333"
         height="14.668059"
         style="fill:#4d4d4d"
         id="rect4035-3" />
      <rect
         width="0"
         x="342.75748"
         y="511.70392"
         height="14.668059"
         style="fill:#4d4d4d"
         id="rect4035-8-9" />
      <rect
         width="0"
         x="344.57077"
         y="510.64319"
         height="14.668059"
         style="fill:#4d4d4d"
         id="rect4035-0-4" />
      <rect
         width="0"
         x="335.79691"
         y="489.1333"
         height="14.668059"
         style="fill:#4d4d4d"
         id="rect4035-2" />
      <rect
         width="0"
         x="342.75748"
         y="511.70392"
         height="14.668059"
         style="fill:#4d4d4d"
         id="rect4035-8-99" />
      <rect
         width="0"
         x="344.57077"
         y="510.64319"
         height="14.668059"
         style="fill:#4d4d4d"
         id="rect4035-0-43" />
      <rect
         width="0"
         x="335.79691"
         y="489.1333"
         height="14.668059"
         style="fill:#4d4d4d"
         id="rect4035-3-9" />
      <rect
         width="0"
         x="342.75748"
         y="511.70392"
         height="14.668059"
         style="fill:#4d4d4d"
         id="rect4035-8-9-9" />
      <rect
         width="0"
         x="344.57077"
         y="510.64319"
         height="14.668059"
         style="fill:#4d4d4d"
         id="rect4035-0-4-4" />
      <rect
         width="0"
         x="406.06702"
         y="510.42273"
         height="10.999983"
         style="fill:#4d4d4d"
         id="rect4035-5" />
      <rect
         width="0"
         x="401.51501"
         y="512.94183"
         height="10.999983"
         style="fill:#4d4d4d"
         id="rect4035-7" />
      <rect
         width="0"
         x="397.00723"
         y="500.52325"
         height="10.999983"
         style="fill:#4d4d4d"
         id="rect4035-9" />
      <rect
         width="0"
         x="397.85126"
         y="512.76068"
         height="10.999983"
         style="fill:#4d4d4d"
         id="rect4035-96" />
      <rect
         width="0"
         x="393.29926"
         y="515.27979"
         height="10.999983"
         style="fill:#4d4d4d"
         id="rect4035-7-0" />
      <rect
         width="0"
         x="388.79147"
         y="502.86121"
         height="10.999983"
         style="fill:#4d4d4d"
         id="rect4035-9-6" />
      <rect
         width="0"
         x="406.06702"
         y="510.42273"
         height="10.999983"
         style="fill:#4d4d4d"
         id="rect4035-1" />
      <rect
         width="0"
         x="401.51501"
         y="512.94183"
         height="10.999983"
         style="fill:#4d4d4d"
         id="rect4035-7-2" />
      <rect
         width="0"
         x="397.00723"
         y="500.52325"
         height="10.999983"
         style="fill:#4d4d4d"
         id="rect4035-9-0" />
      <rect
         width="0"
         x="397.85126"
         y="512.76068"
         height="10.999983"
         style="fill:#4d4d4d"
         id="rect4035-96-9" />
      <rect
         width="0"
         x="393.29926"
         y="515.27979"
         height="10.999983"
         style="fill:#4d4d4d"
         id="rect4035-7-0-9" />
      <rect
         width="0"
         x="388.79147"
         y="502.86121"
         height="10.999983"
         style="fill:#4d4d4d"
         id="rect4035-9-6-9" />
      <g
         inkscape:label="Capa 1"
         id="layer1-7">
        <path
           style="fill:#6e6e6e;fill-opacity:1"
           id="rect4145"
           d="m 25,27 v 1 5 h -3 v 1.5 8.5 h 1 4 V 45.75 47 H 37 V 45.75 43 h 5 V 42 34.5 33 h -3 v -5 -1 z m 1,1 h 12 v 5 H 37 27 26 Z m 1,1 v 1 h 10 v -1 z m 0,2 v 1 h 10 v -1 z m -4,3 h 18 v 8 H 38 V 39 H 26 v 3 h -3 z m 13,2 v 1 h 3 v -1 z m -8,7 h 8 v 3 h -8 z"
           transform="translate(384.57143,483.798)" />
      </g>
    </g>
  </g>
</svg>
