<?xml version="1.0" encoding="UTF-8" standalone="no"?>
<svg
   xmlns:dc="http://purl.org/dc/elements/1.1/"
   xmlns:cc="http://creativecommons.org/ns#"
   xmlns:rdf="http://www.w3.org/1999/02/22-rdf-syntax-ns#"
   xmlns:svg="http://www.w3.org/2000/svg"
   xmlns="http://www.w3.org/2000/svg"
   xmlns:xlink="http://www.w3.org/1999/xlink"
   xmlns:sodipodi="http://sodipodi.sourceforge.net/DTD/sodipodi-0.dtd"
   xmlns:inkscape="http://www.inkscape.org/namespaces/inkscape"
   inkscape:version="1.0 (4035a4fb49, 2020-05-01)"
   sodipodi:docname="folder-pictures.svg"
   id="svg15"
   viewBox="0 0 32 32"
   height="32"
   version="1.1"
   width="32">
  <sodipodi:namedview
     inkscape:current-layer="layer1"
     inkscape:window-maximized="1"
     inkscape:window-y="30"
     inkscape:window-x="0"
     inkscape:cy="12.625194"
     inkscape:cx="4.4163469"
     inkscape:zoom="13.328125"
     showgrid="false"
     id="namedview17"
     inkscape:window-height="1021"
     inkscape:window-width="1920"
     inkscape:pageshadow="2"
     inkscape:pageopacity="0"
     guidetolerance="10"
     gridtolerance="10"
     objecttolerance="10"
     borderopacity="1"
     bordercolor="#666666"
     pagecolor="#ffffff" />
  <defs
     id="defs5455">
    <linearGradient
       gradientTransform="matrix(1 0 0 1 384.57142 515.798)"
       x2="0"
       gradientUnits="userSpaceOnUse"
       y2="8"
       y1="29"
       xlink:href="#linearGradient4172-2"
       id="linearGradient4342"
       inkscape:collect="always" />
    <linearGradient
       id="linearGradient4172-2"
       inkscape:collect="always">
      <stop
         id="stop4174-6-4"
         style="stop-color:#a7afb4" />
      <stop
         id="stop4176-2"
         style="stop-color:#bdc3c7"
         offset="1" />
    </linearGradient>
    <style
       id="current-color-scheme"
       type="text/css">
      .ColorScheme-Text {
        color:#4d4d4d;
      }
      </style>
  </defs>
  <metadata
     id="metadata5458">
    <rdf:RDF>
      <cc:Work
         rdf:about="">
        <dc:format>image/svg+xml</dc:format>
        <dc:type
           rdf:resource="http://purl.org/dc/dcmitype/StillImage" />
        <dc:title></dc:title>
      </cc:Work>
    </rdf:RDF>
  </metadata>
  <g
     style="display:inline"
     transform="translate(-384.57143,-515.798)"
     id="layer1"
     inkscape:groupmode="layer"
     inkscape:label="Capa 1">
    <path
       d="m 386.57143,518.798 v 7 1 h 28 v -6 h -14.00001 l -2,-2 z"
       id="path4308"
       style="fill:#6e6e6e;fill-rule:evenodd"
       inkscape:connector-curvature="0" />
    <path
       d="m 397.57142,523.798 -1.99999,1 h -9 v 1 h 6.99999 3 z"
       id="path4306"
       style="fill-opacity:0.235294;fill-rule:evenodd"
       inkscape:connector-curvature="0" />
    <path
       d="m 397.57142,523.798 -2,2 h -9 -1 v 19 h 11 1 18 v -21 z"
       id="rect4294"
       style="fill:url(#linearGradient4342)"
       inkscape:connector-curvature="0" />
    <path
       d="m 397.57142,523.798 -2,2 h -10 v 1 h 11 z"
       id="path4304"
       style="fill:#ffffff;fill-opacity:0.235294;fill-rule:evenodd"
       inkscape:connector-curvature="0" />
    <path
       d="m 398.57142,518.798 1,3 h 15.00001 v -1 h -14.00001 z"
       id="path4310"
       style="fill:#ffffff;fill-opacity:0.235294;fill-rule:evenodd"
       inkscape:connector-curvature="0" />
    <rect
       id="rect4292"
       style="fill-opacity:0.235294"
       height="1"
       y="543.79797"
       x="385.57144"
       width="30" />
    <g
       inkscape:label="Capa 1"
       id="layer1-4">
      <rect
         width="0"
         x="351.19043"
         y="514.59546"
         height="10.477185"
         style="fill:#4d4d4d"
         id="rect4035-02" />
      <rect
         width="0"
         x="356.60422"
         y="530.71735"
         height="10.477185"
         style="fill:#4d4d4d"
         id="rect4035-8-94" />
      <rect
         width="0"
         x="358.01453"
         y="529.95966"
         height="10.477185"
         style="fill:#4d4d4d"
         id="rect4035-0-3" />
      <rect
         width="0"
         x="337.84668"
         y="511.89462"
         height="10.477185"
         style="fill:#4d4d4d"
         id="rect4035-06-5" />
      <rect
         width="0"
         x="343.26047"
         y="528.01648"
         height="10.477185"
         style="fill:#4d4d4d"
         id="rect4035-8-7-1" />
      <rect
         width="0"
         x="344.67078"
         y="527.25879"
         height="10.477185"
         style="fill:#4d4d4d"
         id="rect4035-0-42-7" />
      <rect
         width="0"
         x="337.84668"
         y="511.89462"
         height="10.477185"
         style="fill:#4d4d4d"
         id="rect4035-3-4" />
      <rect
         width="0"
         x="343.26047"
         y="528.01648"
         height="10.477185"
         style="fill:#4d4d4d"
         id="rect4035-8-9-3" />
      <rect
         width="0"
         x="344.67078"
         y="527.25879"
         height="10.477185"
         style="fill:#4d4d4d"
         id="rect4035-0-4-1" />
      <rect
         width="0"
         x="337.84668"
         y="511.89462"
         height="10.477185"
         style="fill:#4d4d4d"
         id="rect4035-2-4" />
      <rect
         width="0"
         x="343.26047"
         y="528.01648"
         height="10.477185"
         style="fill:#4d4d4d"
         id="rect4035-8-99-6" />
      <rect
         width="0"
         x="344.67078"
         y="527.25879"
         height="10.477185"
         style="fill:#4d4d4d"
         id="rect4035-0-43-9" />
      <rect
         width="0"
         x="337.84668"
         y="511.89462"
         height="10.477185"
         style="fill:#4d4d4d"
         id="rect4035-3-9-4" />
      <rect
         width="0"
         x="343.26047"
         y="528.01648"
         height="10.477185"
         style="fill:#4d4d4d"
         id="rect4035-8-9-9-2" />
      <rect
         width="0"
         x="344.67078"
         y="527.25879"
         height="10.477185"
         style="fill:#4d4d4d"
         id="rect4035-0-4-4-2" />
      <rect
         width="0"
         x="392.50122"
         y="527.10132"
         height="7.857131"
         style="fill:#4d4d4d"
         id="rect4035-5-6" />
      <rect
         width="0"
         x="388.96075"
         y="528.9007"
         height="7.857131"
         style="fill:#4d4d4d"
         id="rect4035-7-4" />
      <rect
         width="0"
         x="385.45471"
         y="520.03027"
         height="7.857131"
         style="fill:#4d4d4d"
         id="rect4035-9-1" />
      <rect
         width="0"
         x="386.11118"
         y="528.7713"
         height="7.857131"
         style="fill:#4d4d4d"
         id="rect4035-96-2" />
      <rect
         width="0"
         x="382.57071"
         y="530.57062"
         height="7.857131"
         style="fill:#4d4d4d"
         id="rect4035-7-0-8" />
      <rect
         width="0"
         x="379.06467"
         y="521.70026"
         height="7.857131"
         style="fill:#4d4d4d"
         id="rect4035-9-6-8" />
      <rect
         width="0"
         x="392.50122"
         y="527.10132"
         height="7.857131"
         style="fill:#4d4d4d"
         id="rect4035-1-9" />
      <rect
         width="0"
         x="388.96075"
         y="528.9007"
         height="7.857131"
         style="fill:#4d4d4d"
         id="rect4035-7-2-2" />
      <rect
         width="0"
         x="385.45471"
         y="520.03027"
         height="7.857131"
         style="fill:#4d4d4d"
         id="rect4035-9-0-8" />
      <rect
         width="0"
         x="386.11118"
         y="528.7713"
         height="7.857131"
         style="fill:#4d4d4d"
         id="rect4035-96-9-8" />
      <rect
         width="0"
         x="382.57071"
         y="530.57062"
         height="7.857131"
         style="fill:#4d4d4d"
         id="rect4035-7-0-9-8" />
      <rect
         width="0"
         x="379.06467"
         y="521.70026"
         height="7.857131"
         style="fill:#4d4d4d"
         id="rect4035-9-6-9-6" />
      <g
         inkscape:label="Capa 1"
         id="layer1-3">
        <path
           style="fill:#6e6e6e;fill-opacity:1"
           id="rect4184"
           d="m 11,13 v 10 h 10 v -2 -8 z m 1,1 h 8 v 6 l -2,-2 -3,3 h 5 v 1 h -8 z m 2,1 a 1,1 0 0 0 -1,1 1,1 0 0 0 1,1 1,1 0 0 0 1,-1 1,1 0 0 0 -1,-1 z m 1,4 -2,2 h 1 l 1.5,-1.5 z"
           transform="translate(384.57143,515.798)" />
      </g>
    </g>
  </g>
</svg>
