<?xml version="1.0" encoding="UTF-8" standalone="no"?>
<svg
   xmlns:dc="http://purl.org/dc/elements/1.1/"
   xmlns:cc="http://creativecommons.org/ns#"
   xmlns:rdf="http://www.w3.org/1999/02/22-rdf-syntax-ns#"
   xmlns:svg="http://www.w3.org/2000/svg"
   xmlns="http://www.w3.org/2000/svg"
   xmlns:xlink="http://www.w3.org/1999/xlink"
   xmlns:sodipodi="http://sodipodi.sourceforge.net/DTD/sodipodi-0.dtd"
   xmlns:inkscape="http://www.inkscape.org/namespaces/inkscape"
   inkscape:version="1.0 (4035a4fb49, 2020-05-01)"
   sodipodi:docname="folder-mail.svg"
   id="svg15"
   viewBox="0 0 32 32"
   height="32"
   version="1.1"
   width="32">
  <sodipodi:namedview
     inkscape:current-layer="layer1-5"
     inkscape:window-maximized="1"
     inkscape:window-y="30"
     inkscape:window-x="0"
     inkscape:cy="10.227847"
     inkscape:cx="15.963583"
     inkscape:zoom="18.848815"
     showgrid="false"
     id="namedview17"
     inkscape:window-height="1021"
     inkscape:window-width="1920"
     inkscape:pageshadow="2"
     inkscape:pageopacity="0"
     guidetolerance="10"
     gridtolerance="10"
     objecttolerance="10"
     borderopacity="1"
     bordercolor="#666666"
     pagecolor="#ffffff" />
  <defs
     id="defs5455">
    <linearGradient
       gradientTransform="matrix(1 0 0 1 384.57142 515.798)"
       x2="0"
       gradientUnits="userSpaceOnUse"
       y2="8"
       y1="29"
       xlink:href="#linearGradient4172-2"
       id="linearGradient4342"
       inkscape:collect="always" />
    <linearGradient
       id="linearGradient4172-2"
       inkscape:collect="always">
      <stop
         id="stop4174-6-4"
         style="stop-color:#a7afb4" />
      <stop
         id="stop4176-2"
         style="stop-color:#bdc3c7"
         offset="1" />
    </linearGradient>
    <style
       id="current-color-scheme"
       type="text/css">
      .ColorScheme-Text {
        color:#4d4d4d;
      }
      </style>
  </defs>
  <metadata
     id="metadata5458">
    <rdf:RDF>
      <cc:Work
         rdf:about="">
        <dc:format>image/svg+xml</dc:format>
        <dc:type
           rdf:resource="http://purl.org/dc/dcmitype/StillImage" />
        <dc:title></dc:title>
      </cc:Work>
    </rdf:RDF>
  </metadata>
  <g
     transform="matrix(1 0 0 1 -384.57143 -515.798)"
     id="layer1"
     inkscape:groupmode="layer"
     inkscape:label="Capa 1">
    <path
       d="m 386.57143,518.798 0,7 0,1 28,0 0,-6 -14.00001,0 -2,-2 z"
       id="path4308"
       style="fill:#6e6e6e;fill-rule:evenodd"
       inkscape:connector-curvature="0" />
    <path
       d="m 397.57142,523.798 -1.99999,1 -9,0 0,1 6.99999,0 3,0 z"
       id="path4306"
       style="fill-opacity:0.235294;fill-rule:evenodd"
       inkscape:connector-curvature="0" />
    <path
       d="m 397.57142,523.798 -2,2 -9,0 -1,0 0,19 11,0 1,0 18,0 0,-21 -18,0 z"
       id="rect4294"
       style="fill:url(#linearGradient4342)"
       inkscape:connector-curvature="0" />
    <path
       d="m 397.57142,523.798 -2,2 -10,0 0,1 11,0 z"
       id="path4304"
       style="fill:#ffffff;fill-opacity:0.235294;fill-rule:evenodd"
       inkscape:connector-curvature="0" />
    <path
       d="m 398.57142,518.798 1,3 15.00001,0 0,-1 -14.00001,0 z"
       id="path4310"
       style="fill:#ffffff;fill-opacity:0.235294;fill-rule:evenodd"
       inkscape:connector-curvature="0" />
    <rect
       id="rect4292"
       style="fill-opacity:0.235294"
       height="1"
       y="543.79797"
       x="385.57144"
       width="30" />
    <g
       inkscape:label="Capa 1"
       id="layer1-5">
      <g
         inkscape:label="Capa 1"
         id="layer1-8">
        <path
           style="fill:#6e6e6e;fill-rule:evenodd;fill-opacity:1"
           id="rect4157"
           d="m 10,14 v 1 7 h 1 11 v -1 -6 -1 z m 1,1 h 0.292969 L 13.933594,17.640625 11.054688,21 H 11 Z m 1.707031,0 h 6.585938 L 16,18.292969 Z m 8,0 H 21 v 6 H 20.94336 L 18.066406,17.640625 Z M 14.642578,18.349609 16,19.707031 17.357422,18.349609 19.628906,21 h -7.257812 z"
           transform="translate(384.57143,515.798)" />
      </g>
    </g>
  </g>
</svg>
